# xmcd CD database file
#
# Track frame offsets:
#	150
#	14698
#	33683
#	48180
#	62390
#	81570
#	95873
#	117248
#	138915
#	155863
#
# Disc length: 2281 seconds
#
# Revision: 0
# Processed by: cddbd v1.5PL3 Copyright (c) Steve Scherf et al.
# Submitted via: CDex 1.50
#
DISCID=8c08e70a
DTITLE=Ytre Suløens Jass-Ensemble and Skruk - Kvite som negrar
DYEAR=1900
DGENRE=Jazz
TTITLE0=Lord, Lord, Lord
TTITLE1=Precious Lord, take my hand
TTITLE2=Oh, when the saints
TTITLE3=Heaven
TTITLE4=Blood and tears
TTITLE5=Sometimes I feel like a motherless child
TTITLE6=What a friend we have in Jesus
TTITLE7=Down by the riverside
TTITLE8=Swing low, sweet chariot
TTITLE9=he's the same
EXTD=
EXTT0=
EXTT1=
EXTT2=
EXTT3=
EXTT4=
EXTT5=
EXTT6=
EXTT7=
EXTT8=
EXTT9=
PLAYORDER=
